<svg xmlns="http://www.w3.org/2000/svg" xml:space="preserve" viewBox="420.87 379.4 4695.73 3223.83"><path fill="#152846" d="M3544 444.5c44.2 8 87 15.1 129.3 23.6 167 33.5 330 79.5 486.3 147.8 115.9 50.7 225.1 112.7 324.7 191a1107.3 1107.3 0 0 1 343.6 451.3 3736.5 3736.5 0 0 1 139.2 397.5 7585.2 7585.2 0 0 1 94.2 357.2c17.3 72.6 30.2 146 39.5 220 8.3 66.2 14.4 132.6 15.6 199.3.5 24.6-.2 49.2-.3 73.9-5.2 4.5-9.4 8.8-14.2 12.2-23.7 17.3-47 35.1-71.4 51.3-45.6 30-91.8 59.3-137.8 88.6-77.9 49.6-161.1 88.3-247 121.6-94.4 36.6-191 66.7-288.1 95a5885 5885 0 0 1-459.3 113.8c-49.6 10.2-99.7 17.9-148.5 31.3l-88.7 24a141.7 141.7 0 0 0-32.9 14 16519.1 16519.1 0 0 0-387.7 227.6 3467.1 3467.1 0 0 1-287.4 157.3c-116.7 56-237.6 101-362.5 135a774 774 0 0 1-157.6 25 299.4 299.4 0 0 1-125.2-20.4 449 449 0 0 1-125.2-73.6 927.8 927.8 0 0 1-102.5-100.9c-33.9-37.7-67.1-75.9-101.8-112.8-43.9-46.6-90-91-137.7-133.7-32.3-29-62.8-59.6-93-90.8a999.5 999.5 0 0 0-54.8-52.4c-12.4-11-26.3-20.5-39.8-30.2-21-15.2-42.3-30.2-63.4-45.2l-1.6-1.3c-70-61.5-153-98.3-241.1-125A979.9 979.9 0 0 0 1155 2779c-56-5.3-111.9-5.3-167.8-2-47.2 2.7-94 10.4-140.4 19.1-49.1 9.3-98.3 18.1-146.3 32.2-30.6 9-60.8 19.5-91.2 29.2a406.2 406.2 0 0 1-72 16.8 177 177 0 0 1-75-6.1 42.5 42.5 0 0 1-29-25.3c-4-9.8-7.4-19.9-10.3-30-5-17.9-1.1-32.8 10.7-48 54.1-69.8 114-134 177.7-195 56-53.4 114-104.5 173.6-153.6 20.1-16.5 41-32 62-47.4 31.5-23.5 63.2-46.8 91.7-74 2.4-2.3 5-4.4 7.7-6.3 92.4-66.8 186.5-131 287-185.1 19.4-10.4 39.1-20 58.6-30.4 12.9-6.8 25.7-13.9 38.3-21.3l98-58.3c2.3-13 5-28.1 7.5-43.1 21.7-125.6 52-249 98-368 46.6-120.7 109.4-232.4 183.7-338a2245.6 2245.6 0 0 1 239.5-284c49.2-49.7 99.3-98.6 153.7-142.8A1638.3 1638.3 0 0 1 2460.2 602 1960.5 1960.5 0 0 1 2900 459.4a1825.4 1825.4 0 0 1 233.5-32c6.7-.5 12.4-1.5 17.4-7.5 4-4.9 10.6-8 16.4-11a262.3 262.3 0 0 1 107.3-28.8c68.5-4 133.8 9.8 196.6 36.7 9.7 4.1 18.8 9.9 27.5 16 5.6 4 11 6.9 18 7.5 8.5.8 17 2.6 27.3 4.2m-3089.5 2351c-1 1.4-1.8 2.7-5.1 5.5-1.6 2.9-5 6-4.6 8.4 3.8 23.3 17.1 40.2 40.7 42.4 17.8 1.6 36 2 53.1-5 2.5-1 5-2 7.7-2.3a406.5 406.5 0 0 0 71-18.9c21.4-7.4 42.5-15.4 64-22.2 37.4-11.7 74.9-23.4 112.6-33.7 28.7-7.9 58-13.9 87.5-18.3 20.4-3 40.7-5.5 61-8.5 24.4-3.6 49.1-1.4 73.2-6.7 51.8 1.2 103.7-3.5 155.5 3.3 15 2 30.3 1.9 45.5 3.7 25.7 3.1 51.1 7.3 76.5 12.3 63.6 12.7 124.6 32.7 180 67.3 27.6 17.2 54.3 36 81.7 53.5 13.3 8.5 24.9 20.2 41.5 26.8 4.9 10.2 15.5 14 23.6 20.6 19.2 15.3 39.1 29.6 58.4 44.8 22.3 17.7 43.8 36.5 66.5 53.8a300.3 300.3 0 0 1 34.1 30.5c52.8 54.5 107.4 107.3 159.6 162.4 56.3 59.4 113 118.6 175 172.4 17 14.8 32.5 31.7 50.4 45.3 28.6 21.5 56.5 44.2 88 61.7 33.2 18.4 66.4 36.7 103.3 47 21 5.8 42 12 64.4 10.6 19.2-1.2 38.4.3 57.6-3.7 16.7-3.4 34.4-2.3 51.4-5a1339 1339 0 0 0 72-13.8 860 860 0 0 0 90-25.7 1069.6 1069.6 0 0 0 148-59.3c43.3-22 86.4-44.4 129.6-66.7 31.3-16.2 62.5-32.6 93.8-49l86.7-45.2 77.8-40.9a678318.6 678318.6 0 0 0 227.8-119.9l148.3-78.2c27-14.3 54.2-28.4 81.3-42.7 15.1-8 18.7-16.2 13-32.6-10.7-30.7-21-61.6-33.1-91.8a1892.2 1892.2 0 0 0-46.2-106c-16-33.6-33.7-66.5-51.4-99.2-11-20.5-23-40.5-35.5-60-31-48.8-64.4-96-103-139.2-16.7-18.8-32-39-49.7-56.9-28-28.3-57.6-55.3-86.5-82.8-2-1.8-4.1-3.3-6.2-5-11.4-9.2-22.6-18.5-34-27.5a6244 6244 0 0 0-75.5-58.5c-2.9-2.2-7.5-2-12.7-5.3-5.5-4.7-10.6-10-16.6-14a999 999 0 0 0-48.4-31.3c-29.6-17.6-59.1-35.4-89.6-51.5-28-14.9-57-28.2-86-41.3-26.6-12-53.6-22.8-80.6-34-2.9-1.2-6.5-1-11.6-3.4-7.4-3.2-14.6-6.7-22.1-9.3-61-21-122.3-41-185-56.6A2618.2 2618.2 0 0 0 2409 1951c-52.4-8.5-104.6-18-157.4-23.5-13.2-1.3-26.3-3.1-39.5-4.4-24.5-2.4-48.9-6.1-73.3-6.6-54-1-108-1-162-.3-24.5.2-49 2.7-73.5 4.2-.7 0-1.3.2-2 .3l-51.2 7c-22.4 3-45 4.9-67 9.5-79.9 16.6-160 32.3-238.7 54.7a809.8 809.8 0 0 0-128.6 48.6c-28.8 13.8-56 30.6-84.3 45.4-50 26.4-99.5 53.7-148.5 82a2693.4 2693.4 0 0 0-140.8 87.2c-42.1 28-83.6 56.8-124.5 86.5a2423 2423 0 0 0-94.7 73.2 2434.3 2434.3 0 0 0-77.7 65.5c-25.5 22.3-51 44.7-75.3 68.4-27.5 27-53.7 55.4-80.2 83.5a960 960 0 0 0-38.5 43.2 6909.8 6909.8 0 0 0-70.7 86.5c-8.3 10.3-16 21.2-24 31.9 0 0-.4.1-2.1 1.8m3305.5 84.4c0-16 0-32 .2-47.9 0-4.6-.8-9.6.5-13.9 5-15.6 2.8-31.6 3.4-47.5.3-6.6-.5-13.6 1.3-19.7 2.6-8.6 2.6-17 2.7-25.7 0-7.3-1.4-15 .6-21.8 4.4-15.8 3-31.7 3.5-47.5 0-3.3-.6-7 .5-10 4.7-13.5 3-27.5 3.5-41.4.2-6 .5-12 1-17.9.8-8.5 2.3-17 2.8-25.5.6-12-1.4-24.4 1.1-35.8 3.1-14 2.6-27.7 3-45.3.3-14.6-.8-29.5 1.4-43.8a217 217 0 0 0 2.4-31.7l.5-211.9c0-6-1-12.3.5-17.9 4.2-15.8 2.8-31.7 3-47.6.4-25.3.2-50.7.5-76 0-6 .8-11.9 1.4-17.8.6-7.3 2-14.5 2-21.8.2-104.6.1-209.1.1-313.7 0-4.7.8-9.6-.3-14-4.7-17.7-3-35.7-3.5-53.6-.4-12 .6-24-3.1-35.6-1.2-3.7-.5-8-.7-12-1.5-29.8-2-59.8-5-89.4-1.5-14.6-3-29-3.5-43.6 0-2-.3-4-.5-6l-7.2-63.1c-1.8-15.8-3.5-31.6-5.6-47.4-1.9-13.8-4.2-27.5-6.3-41.2-3.2-21-6-42-9.8-62.8-4.2-22.8-9.6-45.4-13.9-68.2-9.4-50.3-22.9-99.6-38.2-148.3-12.6-40-27.3-79.2-44.1-117.6a921.3 921.3 0 0 0-73.6-136.9c-19-28.9-39-57.1-62.9-82.2-25.1-26.5-50.3-53.1-79.2-75.9a717.7 717.7 0 0 0-87.7-58.8 44.3 44.3 0 0 0-20.9-5.6c-21.8-1-43.7-2.6-65.5-4-2-.2-4-.7-5.9-1-18.9-3.6-37.8-6.7-56.6-10.8-27-5.8-53.2-13.2-68.3-38.7-11 1-20.8 2-30.7 2.7-19.1 1.6-38.4 2.5-57.5 4.9-25 3-49.8 7-74.6 11-28.7 4.8-57.4 10-86 15.3-5.7 1.1-12.3-.9-20 4.8l-17.6 3.4a1305 1305 0 0 0-163.7 42.9 1925.4 1925.4 0 0 0-219.5 84.3 1861.3 1861.3 0 0 0-218.1 120.7c-53.3 34-103.8 71.8-152.4 112.3a1676.6 1676.6 0 0 0-122.6 111.2c-32.2 32.7-66 64-95.4 99.3-19.6 23.5-41 45.5-60 69.5-26.6 33.9-52.1 68.8-77.6 103.7-41.7 57-78.2 117.2-110 180.4-11.8 23.8-24.4 47.3-34.9 71.8-32.6 76.5-57.8 155.7-83.3 234.8-1.4 4.3-1 9.2-3.8 15.7-6 21-12.5 42-17.8 63.2-11.7 46.4-22.9 92.8-34.1 139.3-.7 2.8-.5 6-.7 10.5 7.3-2.7 13-4.6 18.5-6.8a962.6 962.6 0 0 1 109.7-36.2 1835.1 1835.1 0 0 1 206.1-44c19-3.2 38-5.7 57-8.8 21-3.4 42-6.3 63.2-7.2 4-.1 8.2.4 11.9-.8 11-3.7 22.4-2.8 33.7-3 10-.4 20.3.9 29.8-1.2 12-2.7 23.8-2.6 35.7-2.7 14.7-.2 29.4-.5 44 0 33.2.9 66.4-1.5 99.7 3 22.9 3.1 46.3 1 69.5 4.4 20.3 3 41 3.3 61.5 4.9 1.3 0 2.6.5 4 .7l53.1 6.8c14.5 1.8 29 3.3 43.4 5.5 19.6 3.1 39.2 6.9 58.7 10.3 28.1 4.9 56.2 9.5 84.2 14.8 20.2 3.8 40.2 8.9 60.3 12.8 49.7 9.7 98.2 23.6 146.3 38.7a1781.6 1781.6 0 0 1 281.7 116.8c12.4 6.5 24.5 13.1 38 16.8 3 .8 5.7 3 9.1 7.3 1.8 1.8 3.2 4.2 5.4 5.5 35.9 21.4 72 42.4 106 67 32.1 23.4 63.8 47.3 95 72.1 26.4 21.1 51 44.4 76.6 66.4 34.3 29.5 62.6 65.2 94 97.7l1.1 1.6c9.6 12 19.2 23.7 28.6 35.7 13.9 17.7 28 35.3 41.2 53.6a1110 1110 0 0 1 39.7 59.5c18.3 29.3 37 58.5 53 89 20.3 38.1 38 77.6 56.7 116.6 4.9 10.2 9.4 20.5 13.4 31 17.2 45.4 33.8 91 48.3 137.2 3.8 12.2 9.3 23.3 16 34 1.3 2.1 2.5 5 6 3.4.8-1 2.2-2 2.2-3 .1-24.7.2-49.3 3.7-74.1 6.8-.2 13.7-.3 20.7 3-1.3 8.5-3 17-3.7 25.5-.8 9.3-.3 18.5-3.2 27.7a32.8 32.8 0 0 0 1.1 22 67.2 67.2 0 0 0 31.6.2 463 463 0 0 0 79.8-25 217 217 0 0 1 33.5-12.5c29-7.5 57.8-15.4 87.1-20.4 39.3-6.8 77.4-18.3 116.3-26.6 31-6.6 61.3-17 92.1-25 56-14.4 111.3-30.7 166.4-47.9 45.6-14.2 91.5-27.7 136.4-44.5 39.8-15 80-28.8 119.6-44.2 42.8-16.6 84.5-35.6 126.3-54.4 32.2-14.5 63.4-31 94.8-47.2 13-6.7 25.1-14.6 38.5-22.4-1.5-12.4-3.5-24.1-4.3-35.9-.8-12-.4-24 2-37.6 9.2-13 8-17.7-6.4-26.9-4.6-16.9-3.7-34.2-3.9-51.4 0-2.7.3-5.6-.6-8-4.3-11-3-22.3-3.3-33.6-.2-6 1-12.4-.8-17.8-4-12.5-2.9-25-3.2-37.7-.2-4.6.7-9.6-.7-13.9-4.3-13-3-26.3-3.4-39.6 0-4.6.7-9.6-.8-13.8-3.8-10.4-2.8-21-3.1-31.7-.2-5.3.7-11-.9-15.8-3.4-10.5-3-21-3.2-31.7 0-4.6.5-9.6-1-13.8-3-8.5-2.9-17-2.9-25.7 0-20-6-39.4-4.5-59.4.1-1.3-.6-2.6-.7-4-2.3-18.3-4.7-36.7-6.7-55-1.8-15.9-3-31.7-5-47.5-2-17-4.7-34-7.1-51-2.3-15.7-4.5-31.4-7-47.1-1.5-10.5-3.3-21-5-31.4-3-19.6-5-39.4-9-58.8-8.5-41.5-17.4-83-27.3-124.2-8.8-36.7-18.2-73.4-29.3-109.5-11.6-37.5-25.6-74.1-38.2-111.2-14.3-42.3-33.5-82.6-52.7-122.7-15.8-33-33.2-65.3-52.3-96.4-23.2-37.9-47.7-75.2-74-111a1493.5 1493.5 0 0 0-100.5-126c-17.9-19.6-34.3-40.5-52.5-59.8A1878 1878 0 0 0 4279 861.3c-10.3-9.4-20.6-18.9-31.8-27.2-25.5-19-50-39.2-76-57.8-40-28.8-82.4-53.6-125.5-77-22.2-12.1-45.6-22-68.5-32.5-11.5-5.3-23.2-10-35-14.7-32.7-12.8-65.4-26-98.5-38-28.7-10.4-57.9-19.6-86.9-29.2-3.5-1.2-6.5-.2-11.7 2.4-12.6-5.6-24.2-13-38-16.5-30.1-8-59.8-17.6-89.9-26-36.4-10.1-73.1-19.5-109.5-29.8-7.6-2.2-13.7-2-20.9 1-13.3 6-26.6 11-41.5 13.2-14 2-27.8 2.4-41.7 3-7.2.2-14.6-.6-21.5 6 4.5 3.2 8.5 6.6 13 9.2 43.8 25.8 83.3 57 119.1 93 14.1 14 27.7 28.6 40.7 43.8 15.3 17.6 29.5 36 42.8 55 32 45.9 60 94 83 145.3a1426 1426 0 0 1 50 126c7.2 21.3 12.8 43.2 19.1 64.9 16 54.1 28 109.2 38.5 164.6a2550.7 2550.7 0 0 1 23.7 153.2c2 14.4 3.1 29 5 43.4 2 17.1 5 34 6.7 51.2 2 21.1 3 42.4 4.6 63.5 0 1.4.2 2.7.4 4 5.2 26.8 3.8 54.2 7 81.2 1.4 12.5.3 25.3.5 38 .1 5.3.7 10.5 1.2 15.8.7 7.3 2.2 14.5 2.2 21.7.2 70.7 0 141.3 0 212 0 4.6.8 9.5-.5 13.9-4 13.7-2.8 27.7-3 41.6l-.4 96c0 6-.5 12-1 17.9-.8 8.5-2.4 17.1-2.4 25.7-.4 66-.4 131.9-.6 197.9 0 7.2-.9 14.5-1.5 21.8-.5 6.6-1.8 13.1-2 19.7-.3 16.7-.2 33.4-.4 50 0 5.3-.4 10.7-.8 16-.9 9.2-2.4 18.4-2.8 27.6-.6 12-.4 24-2.7 38.4-.5 2.6-1.6 5.3-1.3 7.8 2.4 26.7-5.4 52.9-4.4 79.5.1 2.6-.7 5.2-1 7.9-1 7.9-2 15.7-2.8 23.6-.4 4.6.7 9.7-.8 13.9-3.6 9.7-3 19.6-3.2 29.6-.2 4 .3 8.3-1 11.9-3.3 8.4-2.8 17-3 25.6-.2 5.3-.8 10.6-1.4 15.8l-2.6 21.7c-.4 4-.2 8-.7 12-2.3 17-5.2 34-7.1 51-2 17.8-3 35.6-4.4 53.5-.1 1.3 0 2.7-.6 4-4.5 10.1-3 20.8-6.1 31.7-7.1 1.2-14.2 2.5-21.2 0M3638 538.5c11.6 2.6 23.3 5 34.8 8 41.6 11 83.3 22 124.8 33.8 26.8 7.6 53.5 16 79.9 25 20.1 6.8 39.6 15.4 59.7 22.4 41.5 14.6 81.3 33 121 51.7 17.4 8.2 33.9 18.3 51 27.2 43.3 22.4 83.1 50 122 79a774.5 774.5 0 0 1 63.8 51c17.5 16 37 30.3 54 47 41.9 40.8 83.5 82 120.6 127.5 13.8 17 28.2 33.5 42.2 50.3 29.7 35.8 56.4 73.8 83.3 111.6a1292.8 1292.8 0 0 1 136 254.7c14.6 36.3 28 73.1 39.9 110.5 15.3 48 30.3 96.2 41.4 145.5 8 35.5 16 71 23.1 106.8 6 30.5 11.2 61.1 16 91.9 3.5 22.8 5.6 46 8.6 69 1.5 11.7 3.5 23.5 5.3 35.2 2 13.1 4.6 26.1 6.3 39.2 3.2 24.3 5 48.8 9 73 3.2 20.2 4.2 40.7 7.4 61 2.3 14.4 2.8 29 5 43.4 1.4 9.9 2.6 19.6 2.8 29.6.2 4-.3 8.3 1 11.9 3.6 9 2.8 18.3 3 27.6.1 5.3-1 11 .4 16 4.6 15.6 3.2 31.6 3.7 47.5.2 7.3.5 14.6 1.2 21.9.6 7.2 2.5 14.4 2.5 21.6.2 56.7.2 113.3 0 170 0 6-.2 12-1.7 17.8-3.5 13.8-1.9 27.5-1.5 42.8 4.8-1.6 8.7-2.4 12-4.3 16.6-9.7 33.3-19.3 49.5-29.8 33.4-21.7 66.6-43.7 98.4-67.8 8.5-6.4 12.2-13.1 11.7-23.4-1.6-28.5 1.4-57-3.5-85.6-3.3-19.4-.5-39.6-4.2-59.5-2.3-12.9-2.1-26.3-3.8-39.5-2.8-21-6-42-8-63-3-29.7-8.6-59-13.8-88.2-8-45-17.7-89.7-30.2-133.7-11.2-39.6-20.7-79.6-30.8-119.5-20.6-81-40.9-162-62-242.9-9.2-35.3-19.4-70.4-30.3-105.2a1317 1317 0 0 0-60-160.5c-17.3-37.3-34.6-74.7-52.8-111.5-10.9-22-23.7-43.2-35.4-64.8-14.6-26.9-30.4-53-47-78.7-27.8-43-57-84.9-88.4-125.3a865.7 865.7 0 0 0-55.3-65.2c-28.9-30.3-58-60.4-90-87.8a877.8 877.8 0 0 0-90.2-68.8 1118 1118 0 0 0-87.8-51.2c-28.2-15-57.7-27.3-86.2-41.7-36.9-18.6-75-34.1-112.9-50.6a1604.1 1604.1 0 0 0-124.6-47.8 2043 2043 0 0 0-150.4-46.2c-54.6-13.9-109.2-27.9-165-36.3-26.8-4.1-53.3-9.8-80-14.7-1.2-.2-2.6.2-7.3 0-5.9-1-11.7-2-17.6-2.8-5.9-.7-11.8-1.4-17.8-1.5-8.4-.2-13 4.8-16.4 13.3 5.7 2.2 10.3 4.6 15.2 5.7 34.8 8.3 69.6 16.3 104.4 24.2 3.9.8 8 .7 14 3.2m-171.9-94.8c-15.7-14.2-34.7-21.8-54.5-27.8-39.2-11.9-79.9-11.8-120.1-15.5-16-1.5-31.7 2.3-47.6 3.3a137 137 0 0 0-42.4 10 55.2 55.2 0 0 0-29 23.2c-8.3 14.3-6.6 28.6 5.3 39.5a84.4 84.4 0 0 0 29.5 16.2c39.7 14.3 81 20.2 122.8 23 26.5 1.8 53.2.5 79.8.5 16 0 31.7-3.7 46.6-9.3 8-3 15.6-7.7 22.3-13 10.2-8 12-19.1 5-30.1-4.3-6.6-10.3-12-17.7-20z"/><path fill="#31649B" d="M1508 1768c.5-4.6.2-9.5 1.6-13.8 25.5-79 50.7-158.3 83.3-234.8 10.5-24.5 23-48 35-71.8a1272.2 1272.2 0 0 1 110-180.4c25.4-35 50.9-69.8 77.6-103.7 18.9-24 40.3-46 59.9-69.5 29.5-35.4 63.2-66.6 95.4-99.3 38.7-39.4 80.1-75.8 122.6-111.2 48.6-40.5 99.1-78.3 152.4-112.3a1868 1868 0 0 1 218-120.7 1902.9 1902.9 0 0 1 219.6-84.3 1305 1305 0 0 1 163.7-42.9c5.8-1 11.7-2.2 20.3-2.2 8.8 1.8 14.7 2.8 20.6 2.8 25.3.2 50.6 0 76 .1 4.6 0 9.3-.2 14 .5a1564.5 1564.5 0 0 1 103.4 18.1c22.1 4.7 43.2 12.6 64.5 20a605.4 605.4 0 0 1 71.6 30.2c10.1 5 19.7 11 29.5 16.7a379.1 379.1 0 0 1 70.9 51.1 664.3 664.3 0 0 1 67.8 70.4c20 25 38.1 51.1 53.2 79.2 25.6 47.5 46.5 97 61.5 149a925 925 0 0 1 23.8 98.4c3 17 5.6 34 8.6 50.8 3.3 18.3 7.3 36.4 7.3 55 0 2.7-.3 5.6.6 8 4.2 10.2 3.1 21 3.3 31.5 0 3.4-.6 7 .4 10 5.6 16.9 3 34.3 3.6 51.5.2 5.3-.7 11 1 15.9 3.6 9.8 3 19.7 3 29.6 0 112 .2 224-.2 335.9 0 26.5 1.5 53-3.1 79.6-3.4 19.3 0 39.6-4.4 59.4-3 14.1-2.2 29.1-5.2 43.3a544 544 0 0 1-29.3 101.1c-17.8 41.7-41.6 78.3-78.6 105.7-30 22.2-63.4 37.5-100.4 40.3-28.2 2.1-56.8 3-85.5-2.4a770.5 770.5 0 0 1-77.1-18.8c-36.4-10.8-71-26.1-105.8-41.1-33.6-14.5-66.5-30.5-99.8-45.5-34.6-15.5-69-31.5-104-45.7a3359.7 3359.7 0 0 0-139.6-53.2 2027 2027 0 0 0-175-54.5c-28.8-7.3-57.6-15.2-86.7-21.6-30.4-6.7-61-12-91.6-17.7-20.8-3.8-41.7-7.2-62.5-10.5-10.5-1.7-21-3.9-31.5-4-20-.1-39.4-6.7-59.5-4.4-1.9.2-3.9-.7-5.9-1-7.8-1-15.7-2.6-23.6-2.7-44.6-.2-89.3-.2-134 0-15.8 0-31.9-1.9-47.5 3.5-3 1-6.6.7-9.9.3-17.5-1.9-34.3 3.6-51.4 5.2-20.3 2-40.3 7.4-60.5 10.7a670.4 670.4 0 0 0-100.1 25.2 2004 2004 0 0 1-101.2 30c-20 5.4-40.8 4-60.8 8.7-4.4 1-9.3 0-14-.6-6.5-.8-13-2-19.5-3.2a90.4 90.4 0 0 1-67.5-53.4c-2-4.4-3.6-8.5-8.3-10.5m822.7-983.4c-16.4 10.2-32.6 20.7-49.2 30.4-47 27.6-91.1 59.6-134.4 92.7-32.1 24.5-63 50.8-93.5 77.3-19.1 16.5-37 34.4-55.4 51.7-28 26.4-53.6 55.5-80.2 83.4l-2.7 3-53 64.5c-12.5 15.5-25.8 30.4-37.1 46.8-21.8 31.7-44.5 62.8-65.4 95.2a1469.6 1469.6 0 0 0-64 108c-26.2 49.3-49.4 100.3-73.7 150.7-5.2 10.7-9.5 21.9-13.9 33-10 26-19.8 52.2-29.9 78.2a124.8 124.8 0 0 0-10.4 58.3c1 9.8 4.1 19.3 12.8 23.6a74.1 74.1 0 0 0 44 8.3c24.4-3.6 47.4-12.4 70.8-19.7a2097 2097 0 0 0 90.5-31.3c28.7-10.4 57.1-22 82.6-39.2a82.5 82.5 0 0 0 29.5-32c13.6-28.1 27.1-56.3 40.2-84.7 11.8-25.3 22.2-51.3 34.6-76.3 29.6-59.6 58.8-119.4 92-177.2 24-42.1 49.5-83.4 76-124 21-32.2 43.8-63.3 66.6-94.3 15.3-20.8 32-40.7 48.2-60.8 8.4-10.3 17.3-20.2 25.9-30.3 13.3-15.7 25.4-32.5 40-47 37.8-37.4 73.5-77 114.3-111.4 19.8-16.7 38.5-34.6 59-50.4 26.8-20.7 53.5-41.5 81-61.1 23.3-16.6 47.4-32.1 71.7-47 26.6-16.4 53.4-32.5 81-47 32.5-17 65.7-32.3 99-47.7a654.6 654.6 0 0 1 81.1-33.1c3-1 5.5-3 9-5-9.6-4.8-16.7.8-24.4 1.5-25.8 2.2-50.6 9.8-75.8 15.4a848.4 848.4 0 0 0-50 13c-32 9.3-64 18-95.4 28.7-32 10.8-63.8 22.9-95.1 35.7a2004 2004 0 0 0-104.2 45.4c-47.5 22.5-94.6 46-142.1 74.7z"/><path fill="#255289" d="M3823.6 2488c.2-12 0-24 .6-35.9.4-9.2 2-18.4 2.8-27.6.4-5.3.7-10.7.8-16 .2-16.6 0-33.3.5-50 .1-6.6 1.4-13.1 2-19.7.5-7.3 1.3-14.6 1.4-21.8.2-66 .2-132 .6-198 0-8.5 1.6-17 2.4-25.6.5-6 1-12 1-18 .2-32 .2-63.9.5-95.9.1-14-1-27.9 3-41.6 1.2-4.4.5-9.3.5-14V1712c-.1-7.2-1.6-14.4-2.3-21.7-.5-5.3-1-10.5-1.2-15.8-.2-12.7.9-25.5-.6-38-3-27-1.7-54.4-6.9-81.2l-.4-4c-1.5-21.1-2.6-42.4-4.6-63.5-1.7-17.1-4.6-34.1-6.8-51.2-1.8-14.4-3-29-4.9-43.4a2550.7 2550.7 0 0 0-23.8-153.1 1670.2 1670.2 0 0 0-38.4-164.7c-6.3-21.7-12-43.6-19.2-65a1426 1426 0 0 0-50-126 889.2 889.2 0 0 0-83-145.2 673.4 673.4 0 0 0-42.7-55 844.1 844.1 0 0 0-40.7-43.9 592.1 592.1 0 0 0-119.1-92.9c-4.5-2.6-8.5-6-13-9.2 7-6.6 14.3-5.8 21.5-6 14-.6 27.7-1 41.7-3 14.9-2.1 28.2-7.3 41.5-13.1a28.3 28.3 0 0 1 21-1.1c36.3 10.3 73 19.7 109.4 29.8 30 8.4 59.8 18 90 26 13.7 3.6 25.3 10.9 40 17.9 24.4 14.6 47 27.5 68.7 41.4 28.5 18.3 57 36.7 84.4 56.6 32.8 23.7 65.8 47.1 95.7 74.6 17.5 16.2 37 30.3 53.9 47.1 32.9 33 67.9 63.9 97.1 100.4 15.4 19.1 32.2 37 47.7 56.1 15.4 19 30.8 38.3 44.7 58.4 38.5 56 74.8 113.2 103.8 174.7 8.8 18.7 19.3 36.6 27.2 55.7a1583 1583 0 0 1 69.7 203.2c15 53.6 25 108.3 35 163 2.2 11.7 4.4 23.6 4.6 35.4.4 21.3 6.7 42.1 4.6 63.5-.3 2.6.9 5.2 1.2 7.9.9 7.2 2.3 14.4 2.4 21.6.2 60 0 120 0 180 0 4 1 8.3-.3 11.9-6.5 19.9-.7 41.2-7.5 61 .4 22.8-5.2 44.8-9.3 66.8a596.4 596.4 0 0 1-33.5 114.4 347.4 347.4 0 0 1-78.7 121c-15.2 15-29.4 30.9-47 43.2-13.6 9.5-26 20.9-40.1 29.2-29.7 17.6-59.4 35.2-91.4 48.7-31.4 13.2-63.5 23.8-95.6 34.6-11.9 4-24.5 5.7-36.6 9.1-24.2 7-49.3 9.7-74 14.4a375.7 375.7 0 0 1-43.3 5.2c-15.2 1.1-30.6-1.2-45.6 3.8-3 1-6.6.3-9.9.3-17.3.3-34.5.4-51.5-3.8zM2832 2063.8c3.3.4 6.9.2 9.8 1.4 27 11.2 54 22 80.6 34 29 13.1 58 26.4 86 41.3 30.5 16.1 60 33.9 89.6 51.5a999 999 0 0 1 48.4 31.2c6 4 11.1 9.4 17.7 16.5 11.4 16.4 22 30 31.7 44.2a847.6 847.6 0 0 1 66.8 113.2c8.6 18 17.5 35.9 25.6 54.1 11 25 18.9 51 26.1 77.3 8 28.8 13.2 57.9 14.2 88 .5 15.7 1.8 31.2-.2 47-1.4 11.8-1.5 23.6-3.7 35.5a294.9 294.9 0 0 1-103.4 177c-21.7 18.4-45 35-68.3 51.4-35.8 25.2-72 50-108.3 74.5-49 32.9-98.3 65.6-148 97.6-39 25.2-79 48.9-118.4 73.6a1431 1431 0 0 1-111 62.9c-28.3 14.5-57.7 27-86.9 39.8a572.3 572.3 0 0 1-105.8 34.6c-27 6-53.9 14.3-82.1 13.8a10 10 0 0 0-4 .5c-10.8 4.6-22.2 3.2-33.5 3.3-14 .1-28 .6-42-.2-17.8-1-35.8-1.7-53.3-4.9-32.6-6-64.9-14-95.4-27.4a413.4 413.4 0 0 1-81.2-46.3 612.7 612.7 0 0 1-74.5-62.7 22.9 22.9 0 0 0-17.2-7.4c-13.5-13.5-25.8-26.6-38.2-39.4-2.7-2.9-6-5.1-9.3-9a463.8 463.8 0 0 0-28-28.3c-1.7-1.6-4.8-1.8-7.6-4-1.4-3-2-5-3.4-6.4-14-13.1-28-26.4-42.4-39-3.7-3.2-9.3-4.4-14.4-7.8-8-12.7-19.3-19.6-31.7-26.8a17.5 17.5 0 0 0-6.2-13.5c-14-12-28.3-23.6-42.2-35.6-7.8-6.8-15.4-6.7-24.6-1.4-8-4.1-15-7.3-21.5-11.3a25 25 0 0 1-8.6-9.3c8-11.6 8.4-15.9 1.6-21.2a1226.4 1226.4 0 0 0-47.7-35.5c-3.3-2.3-8.8-2.7-13.2-2.3a10 10 0 0 0-6.8 16.3c2.5 3 5.4 5.9 8.5 8.3 5.2 4 10.8 7.6 15.3 12.5-4 1-7.4 1.8-10.1.7-11.5-4.6-22.6-10-34.1-14.6-10.2-4-20.7-7.4-31-11-16.1-4-27.7-15.7-41-24.2-27.4-17.6-54-36.3-81.7-53.5-55.4-34.6-116.4-54.6-180-67.3-25.4-5-50.8-9.2-76.5-12.3-15.2-1.8-30.5-1.7-45.5-3.7-51.8-6.8-103.7-2-155.5-3.3-24 5.3-48.8 3-73.2 6.7-20.3 3-40.6 5.5-61 8.5a753.2 753.2 0 0 0-87.5 18.3c-37.7 10.3-75.2 22-112.5 33.7-21.6 6.8-42.7 14.8-64 22.2-23.3 8.1-46.8 15.1-71.1 18.9-2.6.4-5.2 1.3-7.7 2.3-17.2 7-35.3 6.6-53.1 5-23.6-2.2-37-19-40.7-42.4-.4-2.5 3-5.5 6-8 2 4 4 5.8 8 7.6 2.7 13.7 13.3 16.6 22.5 18 13.5 1.8 27.3 1.7 41-1.6 10.2-2.5 14.7-7.7 16.4-17.6 6.2-.3 10.7-.5 15.2-1 7.1-.9 14.2-2 22.1-1.7 8.3 10.2 17.7 7.6 26.5 5 14.5-4.1 28.6-9.5 43.1-13.8a31 31 0 0 0 16.2-12.3c11.1-1.6 20.6-2.8 29.9-5.1 2.1-.6 3.3-5 6.2-6.9 6.1 4.3 10.9 3 16.2 1.4 20.2-6.2 40.6-11.9 62.5-17.7 15.7-2.9 29.7-5.7 43.6-9 1.7-.5 2.6-4.2 5.4-6.5a500 500 0 0 0 15.2-2.7c18-3.5 35.6-9.8 56-9.7 14.7-2.5 27.9-5 40.9-7.8 2.3-.5 4.2-2.5 8.2-3.9 23.9-1.5 46-2.9 68-4.6 3.1-.3 6-2.4 11-3.6h29.3c4 0 7.8-.8 11.7-3.6 4.5 1.8 7.5 3.6 10.6 3.8 11.7.5 23.3 1.3 35 2.8 11.9 1.5 24.8 4 37.4-2 13.9 5 26.9 2.3 41 3.7 5 2.5 8.3 5.1 12.1 5.8 18.2 3.5 36.5 6.8 54.9 9.2 4.8.6 10-2.4 16-2.6 13 5.9 25.2 9.6 39 12 2.4 2.6 3.6 4.5 5.4 5.1 20.5 7 41 14.2 61.7 20.5 3.8 1.1 8.7-1.6 14.6-2.6 12.7 2.7 23.7 5.5 34.8 9.6-.6 10.2 4.9 14.8 11.7 18 16 7.7 32.1 15.3 48.4 22.4 10.8 4.7 14.5 2.6 22-10a625 625 0 0 1 25.1 10c4.4 1.7 8.4 4 8 11-4.8 8-4.1 14.3 2 18.8 9 6.6 18.5 12.6 28 18.5a494 494 0 0 0 25.4 15c6 3.4 11 2.5 14.4-1.4a13 13 0 0 0-1.3-17.8c-2.3-2.3-5.3-3.9-7.8-6-3-2.5-5.7-5.3-7-8 5.4 1 9.3 1.7 13 3.1 22.1 9 43.7 19.2 67.1 24.8a350.8 350.8 0 0 0 140 8.8 717.7 717.7 0 0 0 152-37.5c47.1-16.5 93-36.1 137.8-57.7 39.4-19 77.5-40.6 116-61.4 12.3-6.6 24.2-13.9 36-21.2 22.7-14 45.1-28.2 67.6-42.3 49.5-31.2 99-62.3 148.3-93.6 23-14.5 45.6-29.7 68.6-44.3 14.6-9.2 29.5-18 44.3-26.8l63.3-37.8c10.3-6.2 20.8-11.8 30.8-18.3 21.7-14.2 43.3-28.5 64.6-43.3a400.3 400.3 0 0 0 60-49.1c8.3-8.6 16.7-17.2 25.4-25.5 15.6-14.7 26.4-33.2 38.3-50.7a130.4 130.4 0 0 0 21.9-81.2c-1.3-26-10.3-49.4-23.8-70.9-9.5-15-22.1-28-33-42.3-1.9-2.4-2.3-6-3.3-9z"/><path fill="#31649B" d="M1311 2735.8c-13-1.2-25.3-5-38-12.4.4-12-3-18-12.7-19.9-19.3-3.5-38.6-7.4-58-10.5-7.5-1.1-13 4.6-14 13-.3 2 .1 4 .2 6-12.8-.8-25.8 2-39.5-4.8-.5-8.1.4-13.5-5.7-19-5.4-1-12.5-3.1-19.6-3.4-15.3-.7-30.6-.7-45.9-.4-10.3.2-12.6 3.2-13.7 15.1-.1 1.3.2 2.7.3 4-2.5 3.6-6.2 4.5-10.3 4.5-9.2 0-18.3 0-29-1.7-2.5-16-4-18-15-18.6-20.4-1.2-40.5 3.3-60.7 5.2-6 .5-9 4.7-9.7 10.7-.5 4.8.3 9.2 4.3 12.5-2.2 1.4-4.1 3.4-6.4 3.9a313 313 0 0 1-40.2 6.5c.2-3.8 2-6.2 2.1-8.6.8-9.2-3.4-14-12.3-14-4.6 0-9.2.8-13.7 1.6-11 2.1-22 4.4-33 6.8a123 123 0 0 0-15.3 4.1c-9.8 3.5-12 11.1-6 20.4 1 1.5 3.1 2.4 4.7 3.6-1.2 2.1-2.1 5.8-3.8 6.2-13.9 3.4-27.9 6.2-43 7.8 1.3-7 3.6-12.3-2.1-17.6-4.4-4-9-5.2-14.6-3-3 1-6.4 1.5-9.5 2.5-18.1 5.9-36.8 10.3-54.4 18.7v16.4c-1.6 2.6-2.8 7-5 7.5a126 126 0 0 1-30.1 3.6c-4-8.2-8.7-11.3-15.4-10.7-5.1.5-10.3 1.7-15.4 3.2-13.9 4-27.5 9.3-41.6 12.6-9.6 2.2-13.4 7.3-14 16.2-7 1-14 2.1-21.2 3-4.5.5-9 .7-16.2-.2-8.1-7.8-15.5-6.6-22.6-5.9-5.9.6-11.6 2.2-17.4 2.8-6 .6-11.7 0-15.5-5.9-3.2-4.9-8.3-6-13.8-5.5l-11.7 1.6c8-10.6 15.6-21.5 24-31.8 23.3-29 46.8-57.9 70.6-86.5a960 960 0 0 1 38.5-43.2c26.5-28 52.7-56.5 80.2-83.5 24.2-23.7 49.8-46 75.3-68.4 25.5-22.3 51.3-44.3 77.7-65.5 31.1-25 62.4-49.8 94.7-73.2 40.9-29.7 82.4-58.6 124.5-86.5 46-30.5 93-59.5 140.8-87.2 49-28.3 98.4-55.6 148.5-82 28.3-14.8 55.5-31.6 84.3-45.4 41.4-19.8 84.4-36 128.6-48.6 78.6-22.4 158.8-38 238.7-54.7 22-4.6 44.6-6.4 67-9.5l51.2-7c.7-.1 1.3-.3 2-.3 24.5-1.5 49-4 73.6-4.2 54-.6 108-.8 161.9.3 24.4.5 48.8 4.2 73.3 6.6 13.2 1.3 26.3 3 39.5 4.4 52.8 5.4 105 15 157.4 23.5a2618.2 2618.2 0 0 1 214.3 44.9 2229 2229 0 0 1 184.9 56.6c7.5 2.6 14.7 6.1 23 10.3 2 4 2.4 7.7 4.3 10.1 10.9 14.2 23.5 27.3 33 42.3a144.3 144.3 0 0 1 23.7 71 130.4 130.4 0 0 1-21.8 81c-12 17.6-22.7 36-38.3 50.8a832.3 832.3 0 0 0-25.4 25.5 400.3 400.3 0 0 1-60 49 2626.5 2626.5 0 0 1-64.6 43.4c-10 6.5-20.5 12.1-30.8 18.3l-63.3 37.8c-14.8 8.9-29.7 17.6-44.3 26.8-23 14.6-45.6 29.8-68.6 44.3-49.4 31.3-98.8 62.4-148.3 93.6l-67.5 42.3a700.7 700.7 0 0 1-36 21.2c-38.6 20.8-76.7 42.5-116 61.4a1365.3 1365.3 0 0 1-137.9 57.8 717.7 717.7 0 0 1-152 37.4 350.8 350.8 0 0 1-139.9-8.8c-23.5-5.6-45-15.9-67.2-24.8-3.7-1.4-7.6-2-14.4-3.3-10.7-4.7-19-8.6-26.3-13.7a35.2 35.2 0 0 0-25.5-6.5c0-5.7-4.1-8-8.5-9.8-7.8-3.3-15.8-6.4-25.6-11.2-3.3-3.7-4.3-6.8-6.4-8a351.6 351.6 0 0 0-64.8-29.7l-10.4 7.2a362 362 0 0 1-34.6-9.8c-1.1-8.2.4-16-7.5-18.8-19.2-7-38.6-13-58-19.3-1.8-.6-4-.4-5.9-.2-5.1.3-8.7 2.9-10 8-.7 2.5-1 5.1-1.3 7.7m563.7-571.2 56.8-40.3c35.2-25 70.5-49.9 105.8-74.7 40.7-28.6 81.6-57 122.4-85.5 2.5-1.8 4.4-4.3 6.4-6.2-3.6-5.8-8.4-5.8-13-5.8-12.7 0-25.4 0-38-.2-6-.1-12-.4-17.9-1.6a204.8 204.8 0 0 0-63.6-1.1 439.7 439.7 0 0 1-39.6 2.8c-13.3.2-27-1.5-39.9 1-12 2.1-23.7 2.7-35.6 3-4.6.2-9.2 1.2-13.8 1.8-5.9.7-11.8 1.6-17.7 2.2-15.8 1.6-31.7 2.5-47.4 5-19.6 3-39 7.8-58.6 10.6-38.7 5.5-76.8 14.2-114.7 23.3-31 7.4-61.7 16-92.2 25-44 13-88.3 25-128.8 47.5-29.7 16.4-59.8 32-89.4 48.6-40 22.4-80.1 44.6-119.5 68.1a3769.1 3769.1 0 0 0-123.4 77c-41.8 27.2-82.7 55.7-124 83.7-4.9 3.3-9.6 7-14.4 10.5-28.7 21.5-57.5 42.7-86 64.5-17.9 13.7-35.2 28-52.7 42.3-9.8 8-19.5 16-29 24.2-17.2 14.7-35.2 28.5-51.2 44.3-42 41.8-85.6 82-123.7 127.6a608.7 608.7 0 0 0-49 65.2l-1.2 1.6c-3.8 7.6-1.1 15.2 7.4 17.1a59 59 0 0 0 21.7 1.1 348 348 0 0 0 40.7-9.1c48.4-14 97.4-25.6 146.5-36.8 9-2 18.2-3.6 27.3-5.2l56.8-9.5 62.6-10.4c10.5-1.7 21-3.1 31.5-4 18.5-1.8 37-3 55.5-4.4 2-.2 3.9-.7 5.9-1 7.8-1 15.7-2.6 23.6-2.6 28.6-.4 57.3-.7 86 0a53 53 0 0 0 35.1-11.1c14.8-11.2 30.7-21 45.8-31.8 42.8-30.3 85.4-60.9 128.3-91.2 15.7-11 31.8-21.6 47.6-32.7l125-88.7 110.7-78 107.5-75.7 127.4-90.4z"/><path fill="#163A6E" d="M3822.5 2489.3c18 3 35.3 3 52.6 2.6 3.3 0 7 .7 10-.3 14.9-5 30.3-2.7 45.5-3.8 14.5-1 29-2.5 43.3-5.2 24.7-4.7 49.8-7.4 74-14.4 12.1-3.4 24.7-5.1 36.6-9.1 32.1-10.8 64.2-21.4 95.6-34.6 32-13.5 61.7-31.1 91.4-48.7 14.2-8.3 26.5-19.7 40.1-29.2 17.6-12.3 31.8-28.3 47-43.1a347.4 347.4 0 0 0 78.7-121.1c15-37.1 26.2-75.3 33.5-114.4 4-22 9.7-44 9.3-66.8 6.8-19.8 1-41.1 7.5-61 1.2-3.6.4-8 .4-12l-.1-179.9c0-7.2-1.5-14.4-2.4-21.6-.3-2.7-1.5-5.3-1.2-7.9 2-21.4-4.2-42.2-4.6-63.5-.2-11.8-2.4-23.7-4.5-35.4-10.1-54.7-20.1-109.4-35.1-163l-11.4-40.2a1583 1583 0 0 0-58.3-163c-7.9-19-18.4-37-27.2-55.7-29-61.5-65.3-118.8-103.8-174.7a949.5 949.5 0 0 0-44.7-58.4c-15.5-19-32.3-37-47.7-56.1-29.2-36.5-64.2-67.5-97.1-100.4-16.8-16.8-36.4-31-54-47-29.8-27.6-62.8-51-95.6-74.7-27.4-19.9-55.9-38.3-84.4-56.6-21.8-14-44.3-26.8-67.2-41.3 1.6-4 4.6-5 8.1-4 29 9.7 58.2 18.9 87 29.4 33 12 65.7 25.1 98.5 38 11.7 4.5 23.4 9.3 34.9 14.6 23 10.5 46.3 20.4 68.5 32.4 43.1 23.5 85.5 48.3 125.6 77.1 25.8 18.6 50.4 38.8 76 57.8 11 8.3 21.4 17.8 31.7 27.2a1878 1878 0 0 1 109.2 105.3c18.2 19.3 34.6 40.2 52.5 59.8 36.4 39.7 68.8 82.6 100.5 126 26.3 35.8 50.8 73.1 74 111 19 31.1 36.5 63.5 52.3 96.4 19.2 40.1 38.4 80.4 52.7 122.7 12.6 37 26.6 73.7 38.2 111.2 11 36.1 20.5 72.8 29.3 109.5 10 41.2 18.8 82.7 27.3 124.2 4 19.4 6 39.2 9 58.8 1.7 10.5 3.5 21 5 31.4 2.5 15.7 4.7 31.4 7 47 2.4 17 5 34 7.2 51.1 1.9 15.8 3 31.6 4.9 47.4 2 18.4 4.4 36.8 6.7 55.2.1 1.3.8 2.6.7 3.9-1.6 20 4.6 39.5 4.5 59.4 0 8.7-.2 17.2 2.9 25.7 1.5 4.2 1 9.2 1 13.8.3 10.7-.2 21.2 3.2 31.7 1.6 4.8.7 10.5.9 15.8.3 10.6-.7 21.3 3 31.7 1.6 4.2.8 9.2 1 13.8.3 13.3-1 26.6 3.3 39.6 1.4 4.3.5 9.3.7 14 .3 12.5-.8 25.1 3.2 37.6 1.7 5.4.6 11.9.8 17.8.3 11.3-1 22.7 3.3 33.6.9 2.4.6 5.3.6 8 .2 17.2-.7 34.5 2.4 53.4-19.5 11.6-37.5 21.2-55.5 30.8-1.2.6-2.3 1.4-3.3 2.2-8.7 6.7-9 12.3-.7 21.2 1.3 1.3 3.4 1.7 6.5 3.3 12.2-6.6 24.7-13.7 37.6-20.2 7-3.5 12-10.7 20.7-10.8.2 12-.2 24 .6 36 .8 11.8 2.8 23.5 4.3 35.9-13.4 7.8-25.6 15.7-38.5 22.4-31.4 16.1-62.6 32.7-94.8 47.2-41.8 18.8-83.5 37.8-126.3 54.4-39.6 15.4-79.8 29.3-119.6 44.2-44.9 16.8-90.8 30.3-136.4 44.5-55 17.2-110.4 33.5-166.4 48-30.8 8-61 18.3-92.1 25-38.9 8.2-77 19.7-116.3 26.5-29.3 5-58.2 13-87 20.4a217 217 0 0 0-33.6 12.5 463 463 0 0 1-79.8 25 67.2 67.2 0 0 1-31.6-.1c-3-7.8-3.3-15.4-1.1-22.1 3-9.2 2.4-18.4 3.2-27.7.7-8.5 2.4-17 4.8-28.2 11.4-4.8 21.9-6.5 32.2-8.8 4.5-1 9-2.7 13-5 6-3.1 7.1-9.4 3-15.2-2-2.5-5-4.3-7-6.1l-38 6.4c0-10.7-1.5-21.4 3-31.6.5-1.2.5-2.6.6-4 1.4-17.8 2.4-35.6 4.4-53.4 1.9-17 4.8-34 7-51 .6-4 .4-8 .8-12l2.6-21.7c.6-5.2 1.2-10.5 1.3-15.8.3-8.6-.2-17.2 3-25.6 1.4-3.6 1-8 1-11.9.3-10-.3-19.9 3.3-29.6 1.5-4.2.4-9.3.8-13.9.8-7.9 1.8-15.7 2.8-23.6.3-2.7 1.1-5.3 1-7.9-1-26.6 6.8-52.8 4.4-79.5-.3-2.5.8-5.2 2.3-9m538.8 269c1.9.5 3.8 1.7 5.6 1.6 23.6-1.4 44.7-11.6 66.4-19.4.6-.3 1-.9 1.5-1.3 6-5 6.3-10.9.9-17.3-1.7-2-4.2-3.2-6.8-5.2-20.2 6.6-40.4 13-60.4 19.8-3 1-6 3.1-8.3 5.4-4.3 4.2-5 9.1 1 16.4m172.6-78.2-44.7 16.2c-1.8.7-3.7 1.4-5.3 2.4-9 5.6-9.8 13.2-1.9 21.1 1.3 1.3 3.4 2 5.7 3.3 19.6-6.9 39.6-13.6 59.3-21a28 28 0 0 0 10.1-8.8c2.8-3.5 2-7.4-.8-10.9-5.6-7-12.1-7-22.4-2.3m95.6-36.7c-9.2 3.8-18.6 7.3-27.4 11.7-11.7 6-12.4 11.5-3 21.3 1.2 1.3 3.4 1.7 6 3 18.7-7.4 37.8-14.8 56.8-22.6 3.6-1.5 6.9-4 9.8-6.7 3.2-2.7 4.7-6.5 3.3-10.7-1.7-5-5.6-7.5-10.7-7.4-4 .1-8 .7-11.7 2-6.9 2.3-13.6 5.2-23.1 9.4m-464.7 151.8c-11 2.8-21.9 5.4-32.8 8.4-3.8 1-7.5 2.5-11 4.3-4.4 2.4-6.1 8.2-4.5 14 1.2 4.6 4.8 6.2 9 6.1 4.7 0 9.5.3 14-.8 14.1-3.4 28.2-7.3 42.2-11.2 3.8-1 7.6-2.5 11-4.4 7.8-4.1 8.8-10.2 2.9-18-1.6-2-4.2-3-6.3-4.7-7.4 1.8-14.5 3.5-24.5 6.3m-143.8 35.9c-7.8 1.2-15.9 1.3-22.8 6-6.4 4.4-7.3 11.3-2 17 3.9 4.3 8.3 6.1 14.2 4.6 12.8-3.3 25.8-6 38.6-9.2 5.8-1.4 11.7-2.6 17.2-4.8 8.6-3.3 11.8-9.8 9.3-17-2.1-6-8.2-8.6-16.8-6.6-11.6 2.8-23 6-37.7 10m-71.1 20.6a12.3 12.3 0 0 0-11.1-2.7c-18.8 3.9-37.5 7.5-56.2 11.4-8.4 1.8-11.7 7.1-10.4 16.3.7 5.3 3.8 7.7 12 7.4 21.9-.7 43-6.4 63.8-12.8 7.7-2.3 8.3-7 1.9-19.6m365.3-93.6c-5.1-.4-10.7-2.3-15.4-1-16.6 4.3-33 9.6-49.4 14.9a32 32 0 0 0-10.1 5.9 9.6 9.6 0 0 0-3.2 10.8 9.7 9.7 0 0 0 8.8 7c3.2.3 6.7.5 9.8-.3 18-5 35.8-9.8 53.5-15.3 10.7-3.4 11.4-6 6-22m462.6-178c-22 5.8-42 16-61.9 26.5-1.7 1-3 2.6-4.3 4.1-5.5 6.3-2.6 15.8 5.6 16.8 4.4.6 9.5.5 13.6-1.2 16.4-7 32.6-14.9 49-22.4 4.4-2 7.6-5.2 8.2-10.4.6-5.9-1.4-10.4-10.2-13.5z"/><path fill="#255289" d="M1506.9 1769c5.8 1 7.4 5 9.4 9.5a90.4 90.4 0 0 0 67.5 53.4c6.5 1.3 13 2.4 19.6 3.2 4.6.6 9.5 1.7 13.9.6 20-4.8 40.8-3.3 60.8-8.7 34-9.2 67.7-19 101.2-30 32.7-10.7 66-19.6 100.1-25.2 20.2-3.3 40.2-8.7 60.5-10.7 17.1-1.6 34-7 51.4-5.2 3.3.4 7 .7 10-.3 15.5-5.4 31.6-3.5 47.5-3.5 44.6-.2 89.3-.2 134 0 7.8 0 15.7 1.8 23.5 2.7 2 .3 4 1.2 6 1 20-2.3 39.4 4.3 59.4 4.4 10.5.1 21 2.3 31.5 4 20.8 3.3 41.7 6.7 62.5 10.5 30.6 5.6 61.2 11 91.6 17.7 29 6.4 57.9 14.3 86.7 21.6a2027 2027 0 0 1 175 54.5c46.9 16.6 93.4 34.6 139.5 53.2 35.1 14.2 69.5 30.2 104 45.7 33.4 15 66.3 31 99.9 45.5 34.7 15 69.4 30.3 105.8 41.1 25.4 7.5 51 13.9 77.1 18.8 28.7 5.3 57.3 4.5 85.5 2.4 37-2.8 70.4-18 100.4-40.3 37-27.4 60.8-64 78.6-105.7a544 544 0 0 0 29.3-101c3-14.3 2.1-29.3 5.2-43.4 4.4-19.8 1-40 4.4-59.4 4.6-26.6 3-53.1 3.1-79.6.4-112 .2-224 .2-336 0-9.8.6-19.7-3-29.5-1.7-4.8-.8-10.6-1-15.9-.6-17.2 2-34.6-3.6-51.5-1-3-.3-6.6-.4-10-.2-10.6 1-21.3-3.3-31.5-1-2.4-.7-5.3-.6-8 0-18.6-4-36.7-7.3-55-3-16.9-5.7-33.9-8.6-50.8a925 925 0 0 0-23.8-98.4c-15-52-35.9-101.5-61.5-149a536.3 536.3 0 0 0-53.2-79.2 664.3 664.3 0 0 0-67.8-70.4 379.1 379.1 0 0 0-70.9-51.1c-9.8-5.6-19.4-11.7-29.5-16.7a605.4 605.4 0 0 0-71.6-30.2c-21.3-7.4-42.4-15.3-64.5-20a1770.3 1770.3 0 0 0-103.5-18.1c-4.6-.7-9.3-.5-14-.5h-76c-5.8-.1-11.7-1.1-18.8-3 3.3-6.8 10-4.8 15.6-5.9 28.6-5.3 57.3-10.5 86-15.2 24.8-4.1 49.7-8 74.6-11.1 19.1-2.4 38.4-3.3 57.5-4.9l30.7-2.7c15 25.5 41.4 32.9 68.3 38.7 18.8 4 37.7 7.2 56.6 10.8 2 .3 4 .8 5.9 1 21.8 1.4 43.7 3 65.5 4 7.6.3 14.5 2 21 5.6 30.5 17.6 59.9 36.9 87.6 58.8 28.9 22.8 54 49.4 79.2 76 23.8 25 43.9 53.2 62.9 82.1a921.3 921.3 0 0 1 73.6 137c16.8 38.3 31.5 77.5 44 117.5 15.4 48.7 28.9 98 38.3 148.3 4.3 22.8 9.7 45.4 13.9 68.2 3.8 20.8 6.6 41.8 9.8 62.8 2.1 13.7 4.4 27.4 6.3 41.2 2 15.8 3.8 31.6 5.6 47.4l7.2 63.1c.2 2 .5 4 .5 6 .4 14.6 2 29 3.5 43.6 3 29.6 3.5 59.6 5 89.4.2 4-.5 8.3.7 12 3.7 11.7 2.7 23.7 3 35.6.7 18-1.1 36 3.6 53.6 1.1 4.4.3 9.3.3 14v313.7c-.1 7.3-1.5 14.5-2.1 21.8-.6 6-1.3 11.9-1.4 17.8-.3 25.3-.1 50.7-.5 76-.2 15.9 1.2 31.8-3 47.6-1.6 5.6-.5 12-.5 18l-.5 211.8c0 10.6-.9 21-2.4 31.7-2.2 14.3-1.1 29.2-3.1 45.7a435.8 435.8 0 0 1-69.2-14.6c-25.9-8.1-51.3-18-75.5-30.7-13.5-7.2-27-14.2-40.2-22-24.5-14.5-49.2-28.9-73.2-44.3-64.7-41.6-127.8-85.7-194.5-124.3-41.4-24-83.4-46.7-125.4-69.6-38-20.6-77.1-39-115.9-58.1-5.3-2.7-11-4.1-16.6-6.1-2.9-1.6-5.5-3.8-8.5-4.6-13.6-3.7-25.7-10.3-38-16.8a1781.6 1781.6 0 0 0-281.8-116.8c-48.1-15-96.6-29-146.3-38.7-20.1-4-40.1-9-60.3-12.8-28-5.3-56.1-10-84.2-14.8-19.5-3.4-39-7.2-58.7-10.3-14.4-2.2-29-3.7-43.4-5.5l-53.2-6.8c-1.3-.2-2.6-.6-3.9-.7-20.5-1.6-41.2-2-61.5-5-23.2-3.3-46.6-1.2-69.5-4.3-33.3-4.5-66.5-2.1-99.7-3-14.6-.5-29.3-.2-44 0-11.9.1-23.7 0-35.7 2.7-9.5 2-19.9.8-29.8 1.1-11.3.3-22.7-.6-33.7 3-3.7 1.3-8 .8-12 1-21.2.8-42.1 3.7-63 7.1-19 3.1-38.1 5.6-57 8.7a1835.1 1835.1 0 0 0-206.1 44c-37.4 10-74 22-109.8 36.3-5.5 2.2-11.2 4-18.5 6.8.2-4.6 0-7.7.7-10.5 11.2-46.5 22.4-93 34-139.3 5.4-21.2 12-42.1 19-64.1z"/><path fill="#163A6E" d="M1908.6 3099.7c2.4.9 5.5 1.1 7.2 2.7 9.4 8.8 18.6 18 26.6 28.5-7.4 3.1-12 6.7-13.6 13-1.7 6.9 3.7 10.7 7.8 14.9 12.4 12.6 25 25.2 37.6 37.7 2.7 2.6 6 4.6 8.8 6.7 13.9-8.6 13.9-8.6 9.6-23.5 6.4-.4 11.4 2.2 15.9 6.8a612.7 612.7 0 0 0 74.5 62.7 413.4 413.4 0 0 0 81.2 46.3 423.7 423.7 0 0 0 95.4 27.4c17.5 3.2 35.5 4 53.4 5 14 .7 28 .2 42 0 11.2 0 22.6 1.4 33.5-3.2a10 10 0 0 1 3.9-.5c28.2.5 55-7.8 82-13.8 36.4-8 71.8-19.7 106-34.6 29.1-12.8 58.5-25.3 86.9-39.8a1431 1431 0 0 0 110.9-62.9c39.3-24.7 79.3-48.4 118.4-73.6 49.7-32 99-64.7 148-97.6 36.4-24.4 72.5-49.3 108.3-74.5 23.2-16.5 46.6-33 68.3-51.4a294.9 294.9 0 0 0 103.4-177c2.2-11.9 2.3-23.7 3.7-35.5 2-15.8.7-31.3.2-47-1-30.1-6.3-59.2-14.2-88a553.2 553.2 0 0 0-26.1-77.3c-8-18.2-17-36.1-25.6-54.1-19-39.7-42-77-66.8-113.2-9.7-14.2-20.3-27.8-31-43 3.4-.4 8-.5 10.9 1.7a6244 6244 0 0 1 75.5 58.5c11.4 9 22.6 18.3 34 27.5 2 1.7 4.3 3.2 6.2 5 29 27.5 58.4 54.5 86.5 82.8 17.7 17.9 33 38 49.8 56.9 38.5 43.3 71.9 90.4 103 139.1a985.4 985.4 0 0 1 35.4 60c17.7 32.8 35.5 65.7 51.4 99.3 16.6 34.8 31.8 70.3 46.2 106 12 30.2 22.4 61 33.1 91.8 5.7 16.4 2.1 24.6-13 32.6-27 14.3-54.2 28.4-81.3 42.7l-148.3 78.2a70474.6 70474.6 0 0 1-227.8 120l-77.8 40.8-86.7 45.3-93.8 49c-43.2 22.2-86.3 44.7-129.7 66.6-47.5 24-97.3 42.7-147.9 59.3a860 860 0 0 1-90 25.7c-23.9 5-47.9 10-72 13.9-17 2.6-34.7 1.5-51.4 5-19.2 3.9-38.4 2.4-57.6 3.6-22.4 1.4-43.4-4.8-64.4-10.7-36.9-10.2-70-28.5-103.3-47-31.5-17.4-59.4-40.1-88-61.6-18-13.6-33.3-30.5-50.4-45.3-62-53.8-118.7-113-175-172.4-52.2-55.1-106.8-107.9-159.6-162.4a300.3 300.3 0 0 0-34-30.5c-22.8-17.3-44.3-36.1-66.6-53.8-19.3-15.2-39.2-29.5-58.4-44.8-8.1-6.5-18.7-10.4-23.9-22 10.1 2.4 20.6 5.7 30.8 9.8 11.5 4.6 22.6 10 34 14.6 2.8 1 6.2.2 11.5-.3 9.8 5.6 17.8 11.4 25.2 17.8 4.4 3.8 9.3 4.5 14.6 4.5 3.2 2.8 6.1 6.3 9.8 8.5 6.5 4 13.4 7.2 21.3 12.8.7 7.5 1.1 12.6 5.8 16.5 14.8 12.3 29.4 24.9 44.2 37.2 9 7.5 13 6.8 23.4-3.3 12.2 5.8 23.4 12.7 30.1 26.1-8.4 11-9.3 16.8-2.1 24 13.1 13 27 25 40.6 37.5 4.2 4 8.9 5.6 14.5 4.2 6-1.6 7.8-6.5 9-11.9m550 408c14.6.4 29.1.4 43.3-3.8 7-2 10.2-6.1 9.7-12.8-.5-6.4-4.4-10.6-11.8-10.8-19.9-.3-39.7 0-59.6 0-5 0-8.8 2.1-12.1 5.7-5.2 5.6-4.3 12.6 2 16.9 7.7 5 16.3 5 28.5 4.8m-440.3-279.2c-3.8 6.6-2.8 12.7 2.5 18 13.5 13.7 27 27.4 40.7 40.8 2.2 2.2 5.6 4.2 8.5 4.2 3.6 0 7.7-1.4 10.7-3.6 3.5-2.5 3.5-7 1.6-10.8-1.7-3.6-3.4-7.4-6.1-10.1-12.4-13-25-25.5-37.7-38.2-5.3-5.3-11.3-6.4-20.2-.3m296.5 259.7c17.4 3.8 34.8 7.8 52.3 11.4 5.3 1 10.5.2 15-3.6 6.7-5.8 5.3-16-3-19.4-1.2-.4-2.6-.5-4-.8-18-3.8-36-8-54.3-11.4-4.3-.9-9.2-.2-13.7.8-5.2 1.2-8.3 8.4-5.3 12.9 2.5 3.6 6.6 6.2 13 10m972.7-363.4-52.5 27.9c-2.3 1.2-4.4 3-6.3 4.7-3.6 3.5-5.5 7.6-3.3 12.5 2.2 4.8 6.5 7 11.4 6.2a49 49 0 0 0 15-4.2c14.7-7.6 29-15.8 43.6-23.6 5.9-3.1 9.2-7.6 8-14.4-1.2-7-6-9.7-15.9-9m-259.7 165.4c13.6-7 27.2-13.6 40.6-20.8 4.6-2.4 9-5.6 12.5-9.4 4.9-5.2 1.7-13.9-5.4-15.6a24 24 0 0 0-17.2 2.4c-14 7.3-28.3 14.3-42.4 21.6a33.5 33.5 0 0 0-7.9 5.9 13.4 13.4 0 0 0-2.1 16.3c2.5 4.4 6.7 5.5 13.9 3.5 1.9-.6 3.6-1.7 8-4m-60 31.5c4.4-9.5 4.2-12.2-1.3-17.2-4.7-4.4-8.6-4.9-14.4-1.8l-42 22.4c-4.1 2.2-8.3 4.3-12 7.2-7 5.5-7.4 11.7-1.2 18.6 1.7 1.8 4.2 3 6.8 4.7 21.6-9 41.5-20.9 64-34m164.4-86.2 42.2-22.5c4.1-2.2 8.4-4.1 12.2-6.7a12.5 12.5 0 0 0 4.2-15.9c-2-4.5-7.9-7.2-13.5-5.8-3.2.8-6.3 2.2-9.2 3.6-10.1 5-20.3 10-30.2 15.5-7 3.9-13.8 8-20 12.9-7.2 5.5-5.3 15 3.5 19 2.2 1 5.2.3 10.8-.1m-286.5 152c3.9-2.5 8.2-4.5 11.5-7.6 3.8-3.5 3.8-10.4.8-14.7-3-4.4-7.4-5.6-12.3-4.5-3.1.6-6.3 2-9.2 3.5a4962 4962 0 0 0-45.6 24.7c-1.7.9-3.3 2.2-4.8 3.5-4.5 3.8-5.6 7.5-3.6 12.2 2.6 5.9 6.2 8.5 12.5 7.5 4.5-.7 9-2 13-4.1 11.9-6.1 23.4-12.8 37.7-20.5m496.1-291c-1 1-2 1.8-2.7 2.9-4 5.4-4.3 11-.2 16.5 3.3 4.3 8.2 4.8 16.2.6 17-8.9 34-18 50.8-27.4 6.7-3.7 8.5-12 4.7-19-2.8-5.1-9-6.9-15.7-3-2.8 1.6-6 2.8-8.8 4.4-14 7.7-28 15.4-44.3 25m-1096.4 328.4c-3.2-2.3-6.4-4.5-9.6-7-6.8-5.1-13.5-10.6-20.5-15.6-5-3.4-13.6-2.9-16.8.3-3.7 3.8-3.3 13.2 1 18.4 1.8 2 3.8 3.7 5.9 5.3 4.7 3.7 9.4 7.4 14.2 10.9 9.7 7 19.2 14 29.2 20.6 5.9 3.8 12.6 2.7 16.4-1.5 4.3-5 4.1-13-1.4-17.9-4.9-4.4-10.6-8-18.4-13.5m430.7 26c-5.2 5.8-5.8 12-.5 17.7 4.8 5.1 10.8 4 16.5 1.3l5.3-2.6 36.6-20c4.5-2.6 9-5.4 13.2-8.6a10 10 0 0 0 3.8-10.6c-1-4.3-5.1-7.4-10.2-8a28.2 28.2 0 0 0-17 4.3c-15.1 8.2-30.2 16.4-47.7 26.5m946.3-502.5c-17.3 8.3-34.7 16.3-51.8 25a37.9 37.9 0 0 0-11.7 10.6c-1.7 2.2-2.2 6.3-1.6 9.2a8.6 8.6 0 0 0 8.8 6.7c3.8 0 8-.8 11.4-2.5 14.3-6.9 28.6-14 42.6-21.5 4-2.1 7.7-5.3 11-8.5 7.4-7.6 5.8-12.7-8.7-19m-108.1 83.6c1.6-1.2 3.4-2.1 4.8-3.5 5-4.9 6-9.3 3.8-14-2.2-4.7-7.8-7.3-13.5-6-2 .4-3.9 1-5.6 1.9-15 7.4-30 14.7-44.6 22.5-6.4 3.4-12.1 8-14.3 15.2 9.7 13.5 10.8 14.1 22.5 8.4 15-7.3 29.7-15.1 46.9-24.5m-887.4 458.4c2-1.7 4.5-3.1 5.9-5.2 5.5-8.3 1.8-16-8-17-3.2-.3-6.6-.4-9.9 0-18.3 2.8-36.5 5.5-54.7 8.7-3 .6-5.7 3.3-8 5.6-3.7 3.6-3.6 8.8.6 12.1 3 2.4 6.7 4.6 10.3 5.2 4.5.7 9.3 0 13.8-.6 15.7-2.4 31.3-5 50-8.8m-478.3-115.6c1.5 1.3 3 3 4.7 3.7 8.5 3 14.3 1.5 17.3-4.3 2.6-5.2 1-9.7-4.8-15.4-12.8-12.4-25.5-25-38.4-37.4-3.3-3.1-7-5.8-10-8.2-2.3.5-3.8.4-4.9 1-9.4 5.5-11.1 11.5-5.2 19 2.4 3.2 5.3 5.9 8.1 8.7l33.2 32.9zM3559.7 496.7c1.3-.1 2.7-.5 4-.3 26.6 5 53.1 10.6 80 14.7 55.7 8.4 110.3 22.4 164.9 36.3a2043 2043 0 0 1 150.4 46.2c42.2 14.2 83.7 30.1 124.6 47.8 37.8 16.5 76 32 112.9 50.6 28.5 14.4 58 26.7 86.2 41.7a1118 1118 0 0 1 87.8 51.2c31.6 20.7 61.3 44 90.1 68.8 32 27.4 61.2 57.5 90 87.8a865.7 865.7 0 0 1 55.4 65.2c31.5 40.4 60.6 82.3 88.4 125.3 16.6 25.7 32.4 51.8 47 78.7 11.7 21.6 24.5 42.7 35.4 64.8 18.2 36.8 35.5 74.2 52.8 111.5a1317 1317 0 0 1 60 160.5c11 34.8 21.1 70 30.3 105.2 21.1 80.9 41.4 162 62 243 10.1 39.8 19.6 79.8 30.8 119.4 12.5 44 22.1 88.7 30.2 133.7 5.2 29.2 10.9 58.5 13.7 88.2 2 21 5.3 42 8 63 1.8 13.2 1.6 26.6 4 39.5 3.6 19.9.8 40 4.1 59.5 5 28.6 2 57.1 3.5 85.6.5 10.3-3.2 17-11.7 23.4-31.8 24-65 46-98.4 67.8-16.2 10.5-33 20-49.5 29.8-3.3 2-7.2 2.7-12 4.3-.4-15.3-2-29 1.5-42.8a73.3 73.3 0 0 0 1.8-17.8v-170c-.1-7.2-2-14.4-2.6-21.6-.7-7.3-1-14.6-1.2-21.9-.5-16 1-31.9-3.7-47.6-1.4-5-.3-10.6-.4-16-.2-9.2.6-18.5-3-27.5-1.3-3.6-.8-8-1-12-.2-9.9-1.4-19.6-2.9-29.5-2.1-14.4-2.6-29-4.9-43.4-3.2-20.3-4.2-40.8-7.5-61-3.9-24.2-5.7-48.7-8.9-73-1.7-13.1-4.2-26.1-6.3-39.2-1.8-11.7-3.8-23.5-5.3-35.3-3-23-5.1-46-8.7-69-4.7-30.7-9.8-61.3-15.9-91.8-7-35.7-15-71.3-23-106.8a1757.4 1757.4 0 0 0-41.5-145.5 1568.3 1568.3 0 0 0-40-110.5 1292.8 1292.8 0 0 0-135.9-254.7c-26.9-37.8-53.6-75.8-83.3-111.6-14-16.8-28.4-33.4-42.2-50.3-37.1-45.5-78.7-86.7-120.6-127.6-17-16.6-36.5-30.8-54-47a774.5 774.5 0 0 0-63.7-51c-39-29-78.8-56.5-122-78.9-17.2-8.9-33.7-19-51.2-27.2a1279.7 1279.7 0 0 0-121-51.7c-20-7-39.5-15.6-59.6-22.4-26.4-9-53-17.4-79.9-25-41.5-11.7-83.2-22.7-124.8-33.8-11.5-3-23.2-5.4-36.6-10.3-7.7-5.3-13.4-8.9-19.5-11.4-15.3-6.2-30.8-11.8-46.2-17.8-5-2-10.1-4-11-10.3m1403.1 1972c-8.7 5.8-17.8 11.4-26.3 17.7-10.6 7.8-10.3 13.5.7 23.4.8.8 2.5.6 4.7 1 20.8-8.8 37.6-25.4 57.4-37.2 1-.7 2-1.8 2.7-2.9 2.5-4.3 2.8-8.8.4-13.2-2.5-4.7-7-6.2-11.8-5.3-3.8.7-7.7 2.2-11 4.3-5 3.1-9.5 7.1-16.8 12.1m73.3-58c-1 1-2.1 1.7-2.9 2.7-6 8.4-5.7 12.8.8 18.6 5.7 5 10.5 4.8 17.3-1.3 1.8-1.6 3-4 4.7-6.6-4.6-7-8.5-13.7-19.9-13.4z"/><path fill="#163A6E" d="M3072 2113.6c5.3.7 11.1 2.1 16.4 4.8 38.8 19.1 78 37.5 116 58.1 41.9 22.9 84 45.6 125.3 69.6 66.7 38.6 129.8 82.7 194.5 124.3 24 15.4 48.7 29.8 73.2 44.3 13.2 7.8 26.7 14.8 40.2 22a452.3 452.3 0 0 0 75.5 30.7c22 7 45 11.1 69 16.5 1.5 13.8 2 27.5-1 41.5-2.6 11.4-.6 23.8-1.2 35.8-.5 8.5-2 17-2.8 25.5-.5 6-.8 12-1 17.9-.5 13.9 1.2 27.9-3.5 41.5-1 3-.5 6.6-.5 9.9-.5 15.8.9 31.7-3.5 47.5-2 6.8-.5 14.5-.6 21.8-.1 8.6-.1 17.1-2.7 25.7-1.8 6.1-1 13.1-1.3 19.7-.6 15.9 1.6 31.9-3.4 47.5-1.3 4.3-.5 9.3-.5 14-.1 15.9-.2 31.8-1.7 50-8.9 4.5-10.9 9.9-10.5 17 .2 5.2 2.8 8.2 7.8 9.2 0 24.6 0 49.2-.2 73.9 0 1-1.4 2-2.2 3-3.5 1.5-4.7-1.3-6-3.4a146.3 146.3 0 0 1-16-34 2459.4 2459.4 0 0 0-48.3-137.1c-4-10.6-8.5-21-13.4-31.1-18.6-39-36.4-78.5-56.6-116.7-16.1-30.4-34.8-59.6-53-88.9a1110 1110 0 0 0-39.8-59.5c-13.1-18.3-27.3-35.9-41.2-53.6-9.4-12-19-23.8-28.6-35.7-.4-.5-.7-1.1-1.2-1.6-31.3-32.5-59.6-68.2-94-97.7-25.6-22-50-45.3-76.6-66.4a2722.2 2722.2 0 0 0-95-72c-34-24.7-70-45.7-106-67-2-1.4-3.5-3.8-5.6-7z"/><path fill="#2170A5" d="M3467.3 444.7c6.3 7 12.3 12.4 16.6 19 7 11 5.2 22.2-5 30.2a85.4 85.4 0 0 1-22.3 13c-15 5.5-30.5 9.1-46.6 9.2-26.6 0-53.3 1.3-79.8-.5-41.7-2.8-83.1-8.7-122.8-23a84.4 84.4 0 0 1-29.5-16.2c-12-11-13.6-25.2-5.4-39.5a55.2 55.2 0 0 1 29-23.2 137 137 0 0 1 42.5-10c15.9-1 31.6-4.8 47.6-3.3 40.2 3.7 80.9 3.6 120 15.5 20 6 39 13.6 55.7 28.8z"/><path fill="#234E83" d="M3558 496.5c2.5 6.6 7.7 8.5 12.6 10.5 15.4 6 31 11.6 46.2 17.8 6.1 2.5 11.8 6 18.4 10.3a24 24 0 0 1-11 .2c-34.9-8-69.7-16-104.5-24.2-4.9-1.1-9.5-3.5-15.2-5.7 3.4-8.5 8-13.5 16.4-13.3 6 .1 11.9.8 17.8 1.5 5.9.8 11.7 1.8 19.3 3z"/><path fill="#3A7CB8" d="M2332 784c46.2-28.2 93.3-51.6 140.8-74.1a2004 2004 0 0 1 104.2-45.4c31.3-12.8 63-25 95.1-35.7 31.4-10.6 63.5-19.4 95.4-28.7 16.5-4.8 33.2-9.2 50-13 25.2-5.6 50-13.2 75.8-15.4 7.7-.7 14.8-6.3 24.5-1.5-3.6 2-6.2 4-9 5-28.1 8.7-54.7 20.8-81.2 33.1-33.3 15.4-66.5 30.8-99 47.7a1355.7 1355.7 0 0 0-81 47c-24.3 14.9-48.4 30.4-71.7 47-27.5 19.6-54.2 40.4-81 61-20.5 15.9-39.2 33.8-59 50.5-40.8 34.4-76.5 74-114.4 111.5-14.5 14.4-26.6 31.2-40 46.9-8.5 10.1-17.4 20-25.8 30.3-16.2 20-32.9 40-48.2 60.8-22.8 31-45.5 62-66.6 94.3-26.5 40.6-52 81.9-76 124-33.2 57.8-62.4 117.6-92 177.2-12.4 25-22.8 51-34.6 76.3-13.1 28.4-26.6 56.6-40.2 84.8a82.5 82.5 0 0 1-29.5 31.9c-25.5 17.2-53.9 28.8-82.6 39.2-30 11-60 21.7-90.5 31.3-23.4 7.3-46.4 16.1-70.8 19.7a74.1 74.1 0 0 1-44-8.3c-8.7-4.3-11.8-13.8-12.8-23.6-2-20.5 3-39.5 10.4-58.3 10.1-26 19.8-52.2 30-78.2 4.3-11.1 8.6-22.3 13.8-33 24.3-50.4 47.5-101.4 73.8-150.7 19.6-36.9 41.1-72.8 63.9-108 21-32.4 43.6-63.5 65.4-95.2 11.3-16.4 24.6-31.3 37.1-46.8l53-64.6 2.7-2.9c26.6-28 52.2-57 80.2-83.4 18.4-17.3 36.3-35.2 55.4-51.7 30.5-26.5 61.4-52.8 93.5-77.3 43.3-33 87.3-65 134.4-92.7 16.6-9.7 32.8-20.2 50.5-31zM1873.5 2165.4l-126.2 89.6c-35.8 25.3-71.7 50.4-107.5 75.6l-110.7 78.1-125 88.7c-15.8 11.1-32 21.6-47.6 32.7-42.9 30.3-85.5 60.9-128.3 91.2-15.1 10.7-31 20.6-45.8 31.8a53 53 0 0 1-35.1 11.1c-28.7-.7-57.4-.4-86 0-7.9 0-15.8 1.7-23.6 2.6-2 .3-4 .8-6 1-18.4 1.4-37 2.6-55.4 4.3-10.5 1-21 2.4-31.5 4-20.9 3.4-41.7 7-62.6 10.5l-56.8 9.5c-9.1 1.6-18.3 3.1-27.3 5.2-49 11.2-98 22.8-146.5 36.8a348 348 0 0 1-40.7 9.1 59 59 0 0 1-21.7-1c-8.5-2-11.2-9.6-7.4-17.2l1.2-1.6c14.6-23 31.5-44.4 49-65.2 38.1-45.6 81.7-85.8 123.7-127.6 16-15.8 34-29.6 51.2-44.3 9.5-8.1 19.2-16.3 29-24.2 17.5-14.2 34.8-28.6 52.7-42.3 28.5-21.8 57.3-43 86-64.5 4.8-3.6 9.5-7.2 14.5-10.5 41.2-28 82.1-56.5 123.9-83.7 40.6-26.4 81.8-52.1 123.4-77 39.4-23.5 79.5-45.7 119.5-68 29.6-16.6 59.7-32.3 89.4-48.7 40.5-22.4 84.8-34.6 128.8-47.5 30.5-9 61.2-17.6 92.2-25 38-9.1 76-17.8 114.7-23.3 19.7-2.8 39-7.7 58.6-10.7 15.7-2.4 31.6-3.3 47.4-5 6-.5 11.8-1.4 17.7-2.1 4.6-.6 9.2-1.6 13.8-1.7 12-.4 23.7-1 35.6-3.2 13-2.4 26.6-.7 39.9-1 13.3-.2 26.4-1.3 39.6-2.7 21-2.3 42.5-3.2 63.6 1.1a99 99 0 0 0 17.8 1.6c12.7.2 25.4.1 38 .2 4.7 0 9.5 0 13 5.8-1.9 2-3.8 4.4-6.3 6.2l-122.4 85.5c-35.3 24.8-70.6 49.8-105.8 74.7l-58 41.1z"/><path d="M542.7 3842.4q0-19.6 6.9-38.3 7.2-19 20.8-34.5 13.6-15.7 33.2-24.7 19.7-9.4 44.7-9.4 29.6 0 51 13 21.8 13 32.3 33.8l-32 22q-5.4-12-14.2-19-8.7-7.2-18.7-10-10-3-19.6-3-15.7 0-27.5 6.4-11.4 6.3-19.3 16.6-7.8 10.3-11.8 23-3.6 12.6-3.6 25.3 0 14.2 4.5 27.5 4.6 13 12.7 23.2 8.5 10 20 16 11.7 5.8 25.6 5.8 10 0 20.2-3.4 10.3-3.3 19-10.5 8.8-7.3 13.6-18.7l34.2 19.6q-6.4 16-20.9 27.1-14.2 11.2-32 17-17.8 5.7-35.3 5.7-23 0-42-9.4-19-9.6-32.9-25.3-13.6-16-21.4-35.6-7.5-20-7.5-40.2zm275.1-105.7h42.3l78.8 214.4H896l-19.9-53.5h-74.9l-19.6 53.5h-42.9zm50.8 131.7-29.6-88.5-30.8 88.5zm93.8 82.7v-214.4h91q14.7 0 27 6 12.5 6.1 21.5 16.4 9.4 10.2 14.5 23 5.1 12.6 5.1 25.9 0 18.1-8.4 34.4-8.5 16.3-23.3 26.6-14.7 10.2-35 10.2h-50.7v71.9zm41.7-108.4h48.3q7.6 0 13.6-4.2 6-4.3 9.7-12.1 3.6-8.2 3.6-18.4 0-11.2-4.2-19-4-7.9-10.6-11.8-6.4-4-13.9-4h-46.5zm146.4 108.4v-214.4h41.7v214.4zm246.7-177.8h-68.6V3951h-41.3v-177.8h-68.5v-36.6h178.4zm113 179.3q-23.5 0-42.8-9-19-9.1-33-24.5-13.5-15.7-21-35-7.6-19.7-7.6-40.2 0-21.4 7.8-40.7 8.2-19.7 22-34.8 14.3-15.4 33.3-24.1 19.3-9 42.2-9 23.3 0 42.3 9.3 19.3 9.3 33 25 13.5 15.7 21 35 7.6 19.4 7.6 40 0 21-7.9 40.7-7.8 19.3-22 34.7-13.9 15-33.2 23.8-19 8.8-41.7 8.8zm-62.2-108.7q0 13.9 4.3 26.9 4.2 13 12 23.2 8.2 10 19.7 16 11.7 5.8 26.5 5.8 15.1 0 26.9-6 11.8-6.4 19.6-16.7 7.9-10.5 11.8-23.2 4.2-13 4.2-26 0-13.9-4.5-26.6-4.2-13-12.4-22.9-7.8-10.3-19.6-16-11.5-6-26-6-15.4 0-27.1 6.3-11.5 6-19.4 16.3-7.8 10.3-12 23-4 12.6-4 26z" style="opacity:.923741;fill:#fff;stroke-width:.570502" transform="matrix(.84 -.45 .53 .92 0 0)"/></svg>